<svg width="728" height="153" viewBox="0 0 728 153" fill="none" xmlns="http://www.w3.org/2000/svg">
<rect y="1" width="728" height="150" fill="white"/>
<path d="M90 85H87V152H90V85Z" fill="#535461"/>
<path d="M59.4602 113.763C79.6074 128.673 88 152 88 152C88 152 63.7174 151.146 43.5398 136.237C23.3622 121.327 15 98 15 98C15 98 39.3069 98.8536 59.4602 113.763Z" fill="#DB292F"/>
<path d="M15 98C15 98 40.2128 112.329 48.2981 124.165C56.3835 136.002 88 152 88 152" stroke="#535461" stroke-width="2" stroke-miterlimit="10"/>
<path d="M72.3521 84.4658C83.3933 92.4581 88 105 88 105C88 105 74.6892 104.545 63.6418 96.5342C52.5944 88.5234 48 76 48 76C48 76 61.3108 76.4242 72.3521 84.4658Z" fill="#DB292F"/>
<path d="M48 76C48 76 61.8138 83.685 66.2426 90.0481C70.6714 96.4113 88 105 88 105" stroke="#535461" stroke-width="2" stroke-miterlimit="10"/>
<path d="M104.391 104.155C91.6838 117.961 89 136 89 136C89 136 106.909 131.657 119.609 117.851C132.31 104.045 135 86 135 86C135 86 117.091 90.3428 104.391 104.155Z" fill="#DB292F"/>
<path d="M135 86C135 86 118.455 100.145 114.248 109.895C110.041 119.645 89 136 89 136" stroke="#535461" stroke-width="2" stroke-miterlimit="10"/>
<path d="M560 68H563V1H560V68Z" fill="#535461"/>
<path d="M590.54 39.2368C570.393 24.3271 562 1 562 1C562 1 586.283 1.85358 606.46 16.7632C626.638 31.6729 635 55 635 55C635 55 610.693 54.1464 590.54 39.2368Z" fill="#DB292F"/>
<path d="M635 55C635 55 609.787 40.6714 601.702 28.8348C593.616 16.9982 562 1 562 1" stroke="#535461" stroke-width="2" stroke-miterlimit="10"/>
<path d="M577.648 68.5342C566.607 60.5419 562 48 562 48C562 48 575.311 48.455 586.358 56.4658C597.406 64.4766 602 77 602 77C602 77 588.689 76.5758 577.648 68.5342Z" fill="#DB292F"/>
<path d="M602 77C602 77 588.186 69.315 583.757 62.9519C579.329 56.5887 562 48 562 48" stroke="#535461" stroke-width="2" stroke-miterlimit="10"/>
<path d="M545.609 48.8452C558.316 35.0394 561 17 561 17C561 17 543.091 21.3428 530.391 35.1487C517.69 48.9546 515 67 515 67C515 67 532.909 62.6572 545.609 48.8452Z" fill="#DB292F"/>
<path d="M515 67C515 67 531.545 52.8548 535.752 43.1049C539.959 33.355 561 17 561 17" stroke="#535461" stroke-width="2" stroke-miterlimit="10"/>
<path d="M393 1V96.2572C383.118 96.591 373.54 99.7606 365.41 105.388C357.28 111.015 350.94 118.862 347.147 127.994C346.981 128.392 346.82 128.79 346.666 129.187C344.592 134.56 343.438 140.244 343.251 146H248V73.5H322.246V1H393Z" fill="#DB292F"/>
<path d="M403 101V151H354C354.435 137.88 359.737 125.419 368.834 116.137C377.931 106.854 390.143 101.444 403 101V101Z" fill="#DB292F"/>
<path d="M692.617 137.234C705.108 137.234 715.234 127.108 715.234 114.617C715.234 102.126 705.108 92 692.617 92C680.126 92 670 102.126 670 114.617C670 127.108 680.126 137.234 692.617 137.234Z" fill="#F0F0F0"/>
<path d="M725.626 100.026V148.6H677.046C677.363 139.184 680.319 130.046 685.575 122.227C690.832 114.409 698.178 108.223 706.778 104.375C707.173 104.196 707.573 104.022 707.973 103.854C713.577 101.519 719.558 100.222 725.626 100.026V100.026Z" fill="#DB292F"/>
<path d="M403 122V135H356C357.705 130.342 360.171 125.957 363.313 122H403Z" fill="#3F3D56"/>
<path d="M300.618 73.4248C293.069 56.8249 289.177 38.8287 289.199 20.6294C289.199 17.7312 289.295 14.8547 289.487 12C289.074 12.1719 288.66 12.3497 288.252 12.5334C288.084 15.2182 288 17.9169 288 20.6294C287.985 33.1882 289.801 45.6838 293.392 57.7308C294.985 63.0833 296.935 68.3261 299.227 73.4248C309.408 95.9634 325.793 115.221 346.514 129C346.67 128.603 346.832 128.206 347 127.809C326.725 114.294 310.663 95.4611 300.618 73.4248V73.4248Z" fill="#E4E4E4"/>
<path d="M419.884 46.4194L404.586 60.4018L416.744 40.1488C407.165 22.9039 391.5 8 391.5 8C391.5 8 359 38.9141 359 63.2147C359 87.5152 373.551 96 391.5 96C409.449 96 424 87.5152 424 63.2147C424 57.8059 422.388 52.0697 419.884 46.4194Z" fill="#E4E4E4"/>
<path d="M400 62.8317V64.0366C399.939 78.0428 397.912 88.9709 393.935 96.6659C393.878 96.7793 393.817 96.8867 393.761 97L393.315 96.6838L392.891 96.3736C397.303 88.0642 398.864 76.3188 398.92 64.1022C398.925 63.7085 398.93 63.3088 398.925 62.9092C398.91 57.7374 398.639 52.506 398.203 47.4237C398.173 47.03 398.137 46.6303 398.101 46.2306C397.497 39.5258 396.627 33.1192 395.736 27.5538C395.675 27.1601 395.608 26.7664 395.542 26.3786C394.001 16.9656 392.43 10.1474 392.072 8.63827C392.031 8.45335 392.005 8.35195 392 8.32808L392.486 8.16702L392.491 8.16106L392.983 8C392.988 8.02386 393.075 8.3639 393.218 8.99621C393.766 11.3584 395.189 17.7709 396.586 26.2295C396.647 26.6113 396.714 27.005 396.775 27.3987C397.502 31.9143 398.214 36.9608 398.777 42.2579C398.92 43.5881 399.048 44.9005 399.161 46.1949C399.202 46.5945 399.237 46.9942 399.268 47.3879C399.739 52.8818 399.983 58.0297 400 62.8317Z" fill="white"/>
</svg>
