<svg width="1073" height="709" viewBox="0 0 1073 709" fill="none" xmlns="http://www.w3.org/2000/svg">
<path opacity="0.1" d="M1054.21 551.217C1027.64 606.027 973.69 642.677 917.78 666.847C842.51 699.397 759.62 712.307 677.87 706.847C663.543 705.894 649.26 704.37 635.02 702.277C585.564 695.062 537.348 681.021 491.75 660.557C478.59 654.63 465.697 648.16 453.07 641.147C431.98 629.458 411.773 616.242 392.61 601.607C387.79 597.927 383.037 594.154 378.35 590.287C375.1 587.607 371.88 584.867 368.61 582.207C361.71 576.597 354.61 571.267 346.69 567.277C344.3 566.072 341.85 564.991 339.35 564.037C314.27 554.497 285.35 558.097 259.24 565.537C239.38 571.197 220.02 578.947 200.18 584.477C191.355 587.012 182.363 588.923 173.27 590.197C152.969 592.767 132.353 590.956 112.81 584.887L111.14 584.367C108.34 583.487 105.563 582.524 102.81 581.477L101.14 580.837C98.4733 579.81 95.8633 578.707 93.31 577.527L91.64 576.767C88.9733 575.527 86.3633 574.217 83.81 572.837C82.89 572.357 81.98 571.837 81.08 571.347C66.5527 563.233 53.3476 552.952 41.92 540.857C41.59 540.527 41.28 540.187 40.92 539.857C39.33 538.137 37.77 536.387 36.26 534.597C35.7 533.937 35.14 533.277 34.59 532.597C32.7967 530.41 31.0667 528.174 29.4 525.887C29.15 525.557 28.91 525.217 28.67 524.887C21.8416 515.44 16.1805 505.203 11.81 494.397C11.67 494.067 11.54 493.727 11.42 493.397C10.0867 489.964 8.87 486.474 7.77 482.927C7.32 481.447 6.88999 479.927 6.50999 478.447C6.37999 478.007 6.25999 477.557 6.14999 477.117C0.629994 455.387 0 432.797 0 410.337C0 407.717 0 405.1 0 402.487C0.16 366.157 0.719994 329.207 6.07999 293.377C6.07999 293.127 6.14999 292.877 6.18999 292.637C7.98396 280.575 10.4241 268.618 13.5 256.817C16.7192 244.435 20.8333 232.303 25.81 220.517C38.14 191.517 56.07 165.127 75.98 140.667C126.13 79.117 191.9 27.447 268.88 8.10696C351.83 -12.723 444.02 7.23696 510.93 60.507C531.33 76.747 549.66 95.977 572.57 108.427C592.57 119.267 615.98 123.757 637.4 115.227C655.1 108.177 666.62 104.677 686.5 105.747C727.656 108.075 768.229 116.573 806.86 130.957C808.42 131.527 809.98 132.117 811.53 132.707C912.24 171.237 998.81 247.787 1043.81 346.157C1045 348.757 1046.16 351.377 1047.28 354.017C1074.11 416.687 1083.81 490.137 1054.21 551.217Z" fill="#DB292F"/>
<path d="M650.89 305.07H627.98V260.62C627.98 210.462 587.942 168.765 537.726 168.005C525.617 167.878 513.603 170.146 502.375 174.678C491.148 179.21 480.929 185.916 472.309 194.411C463.688 202.905 456.836 213.02 452.146 224.172C447.457 235.323 445.024 247.292 444.986 259.387V305.07H422.127C412.025 305.101 402.345 309.123 395.202 316.259C388.058 323.394 384.031 333.062 384 343.153V525.917C384.031 536.008 388.058 545.676 395.202 552.811C402.345 559.947 412.025 563.969 422.127 564H650.89C660.991 563.969 670.669 559.946 677.809 552.81C684.95 545.675 688.973 536.006 689 525.917V343.153C688.973 333.064 684.95 323.395 677.809 316.26C670.669 309.124 660.991 305.101 650.89 305.07ZM549.866 423.878V489.337C549.888 492.803 548.59 496.148 546.236 498.694C543.881 501.241 540.646 502.798 537.185 503.05C535.378 503.135 533.573 502.853 531.878 502.22C530.184 501.588 528.636 500.619 527.327 499.372C526.018 498.124 524.976 496.625 524.264 494.964C523.553 493.303 523.185 491.515 523.185 489.709V423.845C517 420.832 512.019 415.814 509.056 409.61C506.094 403.406 505.323 396.382 506.871 389.684C508.419 382.987 512.194 377.011 517.579 372.732C522.965 368.453 529.644 366.123 536.525 366.123C543.407 366.123 550.086 368.453 555.471 372.732C560.857 377.011 564.632 382.987 566.18 389.684C567.727 396.382 566.957 403.406 563.994 409.61C561.031 415.814 556.051 420.832 549.866 423.845V423.878ZM601.333 305.07H471.667V259.387C471.667 242.219 478.495 225.754 490.649 213.614C502.803 201.475 519.287 194.655 536.475 194.655C553.663 194.655 570.147 201.475 582.301 213.614C594.454 225.754 601.282 242.219 601.282 259.387L601.333 305.07Z" fill="#DB292F"/>
<path opacity="0.1" d="M260.86 653.85C309.616 653.85 349.14 647.501 349.14 639.67C349.14 631.839 309.616 625.49 260.86 625.49C212.104 625.49 172.58 631.839 172.58 639.67C172.58 647.501 212.104 653.85 260.86 653.85Z" fill="#DB292F"/>
<path d="M263.7 368.05H258.02V495.95H263.7V368.05Z" fill="#535461"/>
<path d="M299.4 495.56L299.04 501.32L298.54 509.45L298.33 512.84L297.83 520.98L297.61 524.37L297.11 532.5L291.38 624.97C291.136 628.95 289.383 632.686 286.478 635.418C283.574 638.149 279.737 639.67 275.75 639.67H245.97C241.984 639.67 238.148 638.149 235.246 635.417C232.343 632.685 230.592 628.949 230.35 624.97L224.59 532.5L224.09 524.37L223.88 520.98L223.39 512.82L223.18 509.43L222.68 501.3L222.32 495.54C222.252 494.435 222.411 493.327 222.787 492.285C223.163 491.243 223.749 490.29 224.508 489.483C225.267 488.676 226.183 488.034 227.2 487.595C228.217 487.155 229.313 486.929 230.42 486.93H291.31C292.419 486.929 293.516 487.156 294.534 487.596C295.552 488.037 296.468 488.681 297.227 489.49C297.985 490.299 298.57 491.256 298.943 492.3C299.317 493.344 299.473 494.453 299.4 495.56V495.56Z" fill="#3F3D56"/>
<path d="M299.04 501.32L298.54 509.45H223.17L222.67 501.32H299.04Z" fill="#9D9CB5"/>
<path d="M298.33 512.84L297.83 520.98H223.89L223.38 512.84H298.33Z" fill="#9D9CB5"/>
<path d="M297.61 524.37L297.11 532.5H224.61L224.1 524.37H297.61Z" fill="#9D9CB5"/>
<path d="M214 415.99C247.08 439.92 260.86 477.36 260.86 477.36C260.86 477.36 220.99 475.99 187.86 452.06C154.73 428.13 141 390.69 141 390.69C141 390.69 180.91 392.06 214 415.99Z" fill="#DB292F"/>
<path d="M141.05 390.69C141.05 390.69 182.43 413.69 195.7 432.69C208.97 451.69 260.86 477.37 260.86 477.37" stroke="#535461" stroke-width="2" stroke-miterlimit="10"/>
<path d="M235.35 367.82C253.35 380.82 260.86 401.22 260.86 401.22C260.86 401.22 239.16 400.48 221.15 387.45C203.14 374.42 195.65 354.05 195.65 354.05C195.65 354.05 217.35 354.74 235.35 367.82Z" fill="#DB292F"/>
<path d="M195.65 354C195.65 354 218.17 366.5 225.39 376.85C232.61 387.2 260.86 401.17 260.86 401.17" stroke="#535461" stroke-width="2" stroke-miterlimit="10"/>
<path d="M287.03 400.14C266.34 422.87 261.97 452.57 261.97 452.57C261.97 452.57 291.13 445.42 311.81 422.69C332.49 399.96 336.87 370.25 336.87 370.25C336.87 370.25 307.71 377.4 287.03 400.14Z" fill="#DB292F"/>
<path d="M336.87 370.25C336.87 370.25 309.93 393.55 303.08 409.61C296.23 425.67 261.97 452.61 261.97 452.61" stroke="#535461" stroke-width="2" stroke-miterlimit="10"/>
</svg>
